<?xml version="1.0" encoding="iso-8859-1"?>
<!-- Uploaded to: SVG Repo, www.svgrepo.com, Generator: SVG Repo Mixer Tools -->
<svg height="800px" width="800px" version="1.1" id="Layer_1" xmlns="http://www.w3.org/2000/svg" xmlns:xlink="http://www.w3.org/1999/xlink" 
	 viewBox="0 0 392.598 392.598" xml:space="preserve">
<path style="fill:#FFFFFF;" d="M350.707,42.258H41.826c-11.055,0-20.04,8.986-20.04,20.04v199.758c0,11.055,8.986,20.04,20.04,20.04
	h15.968c6.012,0,10.925,4.848,10.925,10.925v48.032l88.307-57.341c1.745-1.164,3.879-1.745,5.947-1.745h187.798
	c11.055,0,20.04-8.986,20.04-20.04V62.233C370.747,51.179,361.762,42.258,350.707,42.258z"/>
<path style="fill:#194F82;" d="M350.707,20.472H41.826C18.747,20.472,0,39.155,0,62.298v199.758
	c0,23.079,18.683,41.826,41.826,41.826h5.107v57.341c0,8.663,9.568,13.834,16.873,9.115l102.465-66.457h184.501
	c23.079,0,41.826-18.683,41.826-41.826V62.298C392.533,39.155,373.851,20.472,350.707,20.472z M370.747,261.991
	c0,11.055-8.986,20.04-20.04,20.04H162.974c-2.069,0-4.202,0.646-5.947,1.745l-88.242,57.277v-48.162
	c0-6.012-4.848-10.925-10.925-10.925H41.826c-11.055,0-20.04-8.986-20.04-20.04V62.169c0-11.055,8.986-20.04,20.04-20.04h308.945
	c11.055,0,20.04,8.986,20.04,20.04v199.822H370.747z"/>
<path style="fill:#FFC10D;" d="M337.972,64.108H54.562c-6.012,0-10.925,4.848-10.925,10.925v40.857h38.271
	c6.012,0,10.925,4.848,10.925,10.925c0,6.012-4.848,10.925-10.925,10.925H43.572v17.067h17.455c6.012,0,10.925,4.848,10.925,10.925
	c0,6.012-4.848,10.925-10.925,10.925H43.572v72.598c0,6.012,4.848,10.925,10.925,10.925h36.008v40.727l62.772-40.727h184.76
	c6.012,0,10.925-4.848,10.925-10.925V75.033C348.962,68.957,343.984,64.108,337.972,64.108z"/>
<path style="fill:#56ACE0;" d="M196.396,95.785c-9.244,0-16.873,7.564-16.873,16.873c0,9.244,7.564,16.873,16.873,16.873
	s16.873-7.564,16.873-16.873C213.269,103.349,205.705,95.785,196.396,95.785z"/>
<path style="fill:#194F82;" d="M196.396,73.999c-21.333,0-38.659,17.325-38.659,38.659s17.325,38.659,38.659,38.659
	s38.659-17.325,38.659-38.659S217.729,73.999,196.396,73.999z M196.396,129.466c-9.244,0-16.873-7.564-16.873-16.873
	c0-9.244,7.564-16.873,16.873-16.873s16.873,7.564,16.873,16.873C213.269,121.902,205.705,129.466,196.396,129.466z"/>
<path style="fill:#56ACE0;" d="M242.618,200.448c0-6.012-3.426-11.507-8.857-14.222c-2.909-1.487-6.077-2.78-9.244-3.879
	l-19.717,24.63c-4.202,5.172-12.929,5.172-17.067,0l-19.653-24.63c-3.232,1.164-6.335,2.392-9.244,3.879
	c-5.495,2.715-8.857,8.21-8.857,14.222v28.057h92.703v-28.057H242.618z"/>
<path style="fill:#194F82;" d="M243.394,166.638c-6.335-3.103-13.059-5.624-20.105-7.499c-4.202-1.099-8.598,0.388-11.313,3.814
	l-15.709,19.717l-15.774-19.782c-2.715-3.426-7.111-4.848-11.313-3.814c-7.046,1.875-13.77,4.331-20.105,7.499
	c-12.994,6.4-21.075,19.394-21.075,33.745v38.917c0,6.012,4.848,10.925,10.925,10.925h114.618c6.012,0,10.925-4.848,10.925-10.925
	v-38.917C264.469,185.967,256.388,173.038,243.394,166.638z M149.915,200.448c0-6.012,3.426-11.507,8.857-14.222
	c2.909-1.487,6.077-2.78,9.244-3.879l19.653,24.63c4.202,5.172,12.929,5.172,17.067,0l19.653-24.63
	c3.232,1.164,6.335,2.392,9.244,3.879c5.495,2.715,8.857,8.21,8.857,14.222v28.057h-92.574V200.448z"/>
</svg>